#!OML:ASF H:\Terrain\Patient Classification 1\Terrain2\Thursday\justin.ASF
:FULLY-SPECIFIED
:DEGREES
3803
root 7.61243 17.7125 11.2173 2094.16 88.0659 -66.7246
lowerback 5.32792 -0.169227 -1.36587
upperback 3.80949 -0.172291 3.22088
thorax 0.952881 -0.100381 4.09867
lowerneck -5.37342 -9.38411 -16.3484
upperneck 37.1365 -11.3182 6.77908
head 15.4325 -5.77299 4.13749
rclavicle -3.8763e-015 2.70347e-014
rhumerus -30.3558 -6.08182 -78.752
rradius 28.1606
rwrist -9.63919
rhand -20.4993 13.3643
rfingers 7.12502
rthumb 5.85776 -16.5347
lclavicle -3.8763e-015 2.70347e-014
lhumerus -36.2367 6.02829 82.0742
lradius 36.2459
lwrist 0.384204
lhand -14.4011 18.3787
lfingers 7.12502
lthumb 11.7423 48.0296
rfemur -9.81803 -4.88273 23.3439
rtibia 33.489
rfoot -22.1162 1.21865
rtoes 22.0838
lfemur -9.34921 -1.7679 -18.081
ltibia 28.2521
lfoot -14.1688 -9.5045
ltoes 15.522
3804
root 7.61302 17.7105 11.2126 2100.73 88.2048 -60.2203
lowerback 5.40317 -0.157493 -1.4277
upperback 3.73248 -0.161122 3.16099
thorax 0.830494 -0.0940449 4.07102
lowerneck -5.10823 -9.61008 -16.2831
upperneck 37.1004 -11.7196 6.7998
head 15.4153 -5.9382 4.07281
rclavicle 6.16232e-015 -3.97569e-015
rhumerus -30.4831 -6.44558 -78.5379
rradius 27.6857
rwrist -9.49938
rhand -20.1889 13.3643
rfingers 7.12502
rthumb 6.15748 -16.5262
lclavicle 6.16232e-015 -3.97569e-015
lhumerus -35.9087 6.23989 81.6756
lradius 36.6136
lwrist 0.373455
lhand -14.4129 18.6116
lfingers 7.12502
lthumb 11.731 48.2631
rfemur -9.98032 -4.88886 23.0623
rtibia 33.6727
rfoot -22.0688 1.31925
rtoes 22.9993
lfemur -9.32149 -1.97159 -18.3714
ltibia 28.0718
lfoot -14.1288 -9.31807
ltoes 16.9049
3805
root 7.61135 17.7087 11.2203 2098.92 88.037 -61.9643
lowerback 5.59149 -0.241926 -1.3114
upperback 3.73252 -0.263136 3.3202
thorax 0.734662 -0.141394 4.17672
lowerneck -5.00924 -9.77225 -16.5043
upperneck 37.1539 -11.9575 6.85134
head 15.4885 -6.06713 4.09307
rclavicle 0 -6.36111e-015
rhumerus -30.4331 -6.39437 -78.3776
rradius 27.2168
rwrist -9.65579
rhand -19.9706 13.4505
rfingers 7.12502
rthumb 6.36819 -16.4338
lclavicle 0 -6.36111e-015
lhumerus -35.5792 6.57137 81.3378
lradius 37.0168
lwrist 0.245603
lhand -15.0029 19.0664
lfingers 7.12502
lthumb 11.162 48.7495
rfemur -9.95534 -4.61056 23.3394
rtibia 33.7313
rfoot -22.0607 0.719393
rtoes 23.0108
lfemur -9.27675 -1.75558 -18.1286
ltibia 28.0569
lfoot -14.16 -9.453
ltoes 16.7262
3806
root 7.6168 17.7054 11.2289 2095.2 87.5985 -65.6038
lowerback 5.69195 -0.576239 -1.12057
upperback 3.83333 -0.686223 3.79675
thorax 0.823442 -0.351646 4.58736
lowerneck -5.32382 -9.72118 -17.26
upperneck 37.3208 -11.7326 6.93443
head 15.6985 -6.06551 4.2832
rclavicle -3.57812e-015 1.66979e-014
rhumerus -30.0355 -5.43459 -78.2133
rradius 26.8184
rwrist -9.7123
rhand -20.112 13.2828
rfingers 7.12502
rthumb 6.23173 -16.6056
lclavicle -3.57812e-015 1.66979e-014
lhumerus -35.4562 7.51371 81.224
lradius 37.6723
lwrist 0.595722
lhand -15.434 19.1377
lfingers 7.12502
lthumb 10.7462 48.8429
rfemur -9.82554 -4.34953 23.9134
rtibia 33.7046
rfoot -22.2366 0.506102
rtoes 22.4996
lfemur -9.201 -1.48565 -17.5748
ltibia 28.1569
lfoot -14.3562 -9.4511
ltoes 14.8625
3807
root 7.62236 17.7005 11.2332 2095.51 87.1572 -65.254
lowerback 5.76322 -1.04967 -1.09677
upperback 3.94971 -1.29895 4.40888
thorax 0.976364 -0.661998 5.24585
lowerneck -5.92114 -9.51379 -18.4762
upperneck 37.6454 -11.1662 7.13702
head 16.055 -5.96974 4.66306
rclavicle -1.21259e-014 3.4191e-014
rhumerus -29.4521 -3.97065 -77.9951
rradius 26.411
rwrist -9.59949
rhand -20.095 12.9567
rfingers 7.12502
rthumb 6.24812 -16.9312
lclavicle -1.21259e-014 3.4191e-014
lhumerus -35.3995 9.14262 81.1831
lradius 38.2453
lwrist 1.06042
lhand -15.7371 19.1085
lfingers 7.12502
lthumb 10.4538 48.8286
rfemur -9.7607 -4.41022 24.3396
rtibia 33.6941
rfoot -22.3165 0.917481
rtoes 22.1306
lfemur -9.11528 -1.27989 -17.1128
ltibia 28.2201
lfoot -14.5599 -9.35643
ltoes 13.4456
3808
root 7.62038 17.6992 11.2342 2099.1 87.2556 -61.7457
lowerback 5.81006 -1.31733 -1.44159
upperback 3.94995 -1.66598 4.66383
thorax 1.00861 -0.85534 5.72986
lowerneck -6.23241 -9.43159 -19.1768
upperneck 37.8893 -10.9005 7.2901
head 16.2968 -5.93952 4.89513
rclavicle -8.94531e-015 -1.03368e-014
rhumerus -29.0877 -3.51619 -77.7249
rradius 25.8779
rwrist -9.18647
rhand -20.0373 12.9163
rfingers 7.12502
rthumb 6.3038 -16.9699
lclavicle -8.94531e-015 -1.03368e-014
lhumerus -35.2981 9.84303 81.1038
lradius 38.7555
lwrist 1.64157
lhand -16.061 19.066
lfingers 7.12502
lthumb 10.1413 48.8016
rfemur -9.91398 -4.53161 24.1558
rtibia 33.754
rfoot -22.3011 1.12904
rtoes 22.0897
lfemur -9.19116 -1.04718 -17.2496
ltibia 28.1893
lfoot -14.6959 -9.41998
ltoes 13.0402
3809
root 7.62522 17.7019 11.229 2103.49 87.433 -57.4481
lowerback 5.68998 -1.1556 -1.37449
upperback 3.94465 -1.45575 4.41783
thorax 1.03623 -0.748559 5.41937
lowerneck -5.90518 -9.69733 -18.6121
upperneck 37.8345 -11.5011 7.34957
head 16.2471 -6.1089 4.72665
rclavicle -1.61016e-014 6.20208e-014
rhumerus -29.269 -4.8755 -77.5371
rradius 25.6026
rwrist -8.60652
rhand -19.92 13.0313
rfingers 7.12502
rthumb 6.41703 -16.8515
lclavicle -1.61016e-014 6.20208e-014
lhumerus -34.876 8.64134 80.9301
lradius 39.2425
lwrist 2.5006
lhand -15.9445 18.3191
lfingers 7.12502
lthumb 10.2537 48.0492
rfemur -10.0707 -4.61568 23.8469
rtibia 33.8959
rfoot -22.3103 1.36422
rtoes 22.9481
lfemur -9.20722 -1.06005 -17.5371
ltibia 28.0484
lfoot -14.86 -9.30082
ltoes 13.0865
3810
root 7.63894 17.7021 11.2229 2110.63 87.5241 -50.3173
lowerback 5.49261 -0.676758 -0.936419
upperback 3.96762 -0.81522 3.77396
thorax 1.0809 -0.416747 4.46173
lowerneck -5.03044 -10.2166 -17.4335
upperneck 37.5503 -12.7606 7.6407
head 16.0149 -6.45318 4.45554
rclavicle 1.19271e-015 7.95139e-015
rhumerus -29.9244 -7.38017 -77.5141
rradius 25.5371
rwrist -8.04134
rhand -19.9304 13.2513
rfingers 7.12502
rthumb 6.40702 -16.6318
lclavicle 1.19271e-015 7.95139e-015
lhumerus -34.2632 6.16274 80.5187
lradius 39.7248
lwrist 3.45001
lhand -14.8351 17.6405
lfingers 7.12502
lthumb 11.3238 47.3148
rfemur -10.1067 -4.84313 23.4786
rtibia 34.0609
rfoot -22.347 1.83638
rtoes 24.3075
lfemur -9.00942 -1.40339 -17.9112
ltibia 27.8511
lfoot -14.8636 -8.92085
ltoes 13.506
3811
root 7.64677 17.7017 11.2244 2118.88 87.648 -42.1336
lowerback 5.37553 -0.350554 -0.812476
upperback 3.93982 -0.386778 3.30888
thorax 1.0739 -0.198047 3.88631
lowerneck -4.30847 -10.6054 -16.8463
upperneck 37.2724 -13.6876 8.01866
head 15.8371 -6.7363 4.37926
rclavicle 0 -2.54444e-014
rhumerus -30.3642 -9.34281 -77.3637
rradius 25.2658
rwrist -7.36317
rhand -20.2533 13.4208
rfingers 7.12502
rthumb 6.09531 -16.4716
lclavicle 0 -2.54444e-014
lhumerus -33.8221 4.4643 80.1981
lradius 40.2211
lwrist 4.62995
lhand -15.1589 17.9966
lfingers 7.12502
lthumb 11.0115 47.6878
rfemur -10.2282 -4.9776 23.0864
rtibia 34.1715
rfoot -22.4473 2.20693
rtoes 24.8676
lfemur -8.95371 -1.4695 -18.303
ltibia 27.6979
lfoot -14.6663 -8.88968
ltoes 14.692
